<?xml version="1.0" standalone="yes"?>

<svg version="1.1" viewBox="0.0 0.0 384.0 384.0" fill="none" stroke="none" stroke-linecap="square" stroke-miterlimit="10" xmlns="http://www.w3.org/2000/svg" xmlns:xlink="http://www.w3.org/1999/xlink"><clipPath id="p.0"><path d="m0 0l384.0 0l0 384.0l-384.0 0l0 -384.0z" clip-rule="nonzero"></path></clipPath><g clip-path="url(#p.0)"><path fill="#000000" fill-opacity="0.0" d="m0 0l384.0 0l0 384.0l-384.0 0z" fill-rule="nonzero"></path><path fill="#000000" d="m0 64.00128l0 0c0 -35.34693 28.654348 -64.00128 64.00128 -64.00128l255.99744 0l0 0c16.974182 0 33.253174 6.742973 45.255737 18.74554c12.002563 12.002569 18.745544 28.281544 18.745544 45.25574l0 255.99744c0 35.346924 -28.654358 64.00128 -64.00128 64.00128l-255.99744 0c-35.34693 0 -64.00128 -28.654358 -64.00128 -64.00128z" fill-rule="nonzero"></path><path fill="#6aa84f" d="m29.34904 71.540634l324.69293 0l0 281.88977l-324.69293 0z" fill-rule="nonzero"></path><path fill="#ffffff" d="m68.50799 258.3655l0 -91.625l12.125 0l0 91.625l-12.125 0zm29.8125 -44.625q0 -22.8125 12.25 -35.71875q12.25 -12.90625 31.625008 -12.90625q12.6875 0 22.875 6.0625q10.1875 6.0625 15.53125 16.90625q5.34375 10.84375 5.34375 24.59375q0 13.9375 -5.625 24.9375q-5.625 11.0 -15.9375 16.65625q-10.3125 5.65625 -22.25 5.65625q-12.9375 0 -23.125008 -6.25q-10.1875 -6.25 -15.4375 -17.0625q-5.25 -10.8125 -5.25 -22.875zm12.5 0.1875q0 16.5625 8.90625 26.09375q8.906258 9.53125 22.343758 9.53125q13.6875 0 22.53125 -9.625q8.84375 -9.625 8.84375 -27.3125q0 -11.1875 -3.78125 -19.53125q-3.78125 -8.34375 -11.0625 -12.9375q-7.28125 -4.59375 -16.34375 -4.59375q-12.875 0 -22.156258 8.84375q-9.28125 8.84375 -9.28125 29.53125zm92.81251 44.4375l0 -91.625l12.125 0l0 91.625l-12.125 0zm29.8125 -44.625q0 -22.8125 12.25 -35.71875q12.25 -12.90625 31.625 -12.90625q12.6874695 0 22.87497 6.0625q10.1875 6.0625 15.53125 16.90625q5.34375 10.84375 5.34375 24.59375q0 13.9375 -5.625 24.9375q-5.625 11.0 -15.9375 16.65625q-10.3125 5.65625 -22.24997 5.65625q-12.9375 0 -23.125 -6.25q-10.1875 -6.25 -15.4375 -17.0625q-5.25 -10.8125 -5.25 -22.875zm12.5 0.1875q0 16.5625 8.90625 26.09375q8.90625 9.53125 22.34375 9.53125q13.6874695 0 22.53122 -9.625q8.84375 -9.625 8.84375 -27.3125q0 -11.1875 -3.78125 -19.53125q-3.78125 -8.34375 -11.0625 -12.9375q-7.28125 -4.59375 -16.34372 -4.59375q-12.875 0 -22.15625 8.84375q-9.28125 8.84375 -9.28125 29.53125z" fill-rule="nonzero"></path><path fill="#cc0000" d="m29.349092 41.43307l0 0c0 -8.114674 6.7051525 -14.692913 14.9763775 -14.692913l0 0c3.9719849 0 7.7812843 1.5479984 10.589901 4.3034534c2.8086128 2.755457 4.3864784 6.492655 4.3864784 10.38946l0 0c0 8.114674 -6.7051544 14.692913 -14.976379 14.692913l0 0c-8.271225 0 -14.9763775 -6.5782394 -14.9763775 -14.692913z" fill-rule="nonzero"></path><path fill="#999999" d="m149.34862 34.31496l204.69292 0l0 14.236221l-204.69292 0z" fill-rule="nonzero"></path><path fill="#1155cc" d="m69.34909 41.43307l0 0c0 -8.114674 6.7051544 -14.692913 14.976379 -14.692913l0 0c3.9719849 0 7.7812805 1.5479984 10.589897 4.3034534c2.8086166 2.755457 4.3864822 6.492655 4.3864822 10.38946l0 0c0 8.114674 -6.7051544 14.692913 -14.976379 14.692913l0 0c-8.271225 0 -14.976379 -6.5782394 -14.976379 -14.692913z" fill-rule="nonzero"></path><path fill="#e69138" d="m109.34909 41.43307l0 0c0 -8.114674 6.7051544 -14.692913 14.976379 -14.692913l0 0c3.9719849 0 7.7812805 1.5479984 10.589905 4.3034534c2.808609 2.755457 4.3864746 6.492655 4.3864746 10.38946l0 0c0 8.114674 -6.7051544 14.692913 -14.976379 14.692913l0 0c-8.271225 0 -14.976379 -6.5782394 -14.976379 -14.692913z" fill-rule="nonzero"></path></g></svg>

